<svg xmlns="http://www.w3.org/2000/svg" viewBox="0 0 101.96 16.76"><defs><style>.cls-1{fill:#6d6e70;}</style></defs><g id="Layer_2" data-name="Layer 2"><g id="Layer_2-2" data-name="Layer 2"><path class="cls-1" d="M92.92,13.1c-2.28,0-4.13-2.16-4.13-4.83s1.85-4.83,4.13-4.83,4.13,2.16,4.13,4.83S95.2,13.1,92.92,13.1m-17.58,0c-2.28,0-4.12-2.16-4.12-4.83s1.84-4.83,4.12-4.83,4.13,2.16,4.13,4.83-1.85,4.83-4.13,4.83M20.59,12c1-2.55,2-5.13,3-7.57C24.68,6.9,26.89,12,26.89,12Zm-10.43-.48a3.06,3.06,0,0,1-2.28.64H5.16v-8c.91,0,1.86,0,2.7,0a4.25,4.25,0,0,1,2,.47c2.3,1.43,2.27,5.4.32,6.83M92.9,0a9,9,0,0,0-8.77,6.29A9,9,0,0,0,75.36,0a9.16,9.16,0,0,0-8,4.42c.16-.41.93-2.33,1.4-3.63H64.3L61,10.4c-.72-1.85-1.61-4-2.32-5.89.51-1.21,1-2.43,1.52-3.64H53.58v0c.48,1.2,1,2.4,1.52,3.59-.75,1.91-2.36,5.9-2.36,5.9L49,.79H33.17l0,14.74S29.23,5.64,27.3.79H19.78L16,10.66a7.12,7.12,0,0,0,.21-2.88c-.28-2.35-1.54-5.62-4.79-6.55A10.15,10.15,0,0,0,8.29.79H0C0,5.72,0,15.66,0,15.66H6.51a18.22,18.22,0,0,0,4.94-.36A7.14,7.14,0,0,0,13.93,14a4,4,0,0,0,1.14-1.42c-.38,1-.76,2-1.13,3.08H19.1L20.58,12l1.66,3.64c8,0,24.12,0,24.12,0V12.15H37.89v-2h7.55V6.92H37.89V4.72h8.43l3.89,10.94h4.1c.86-2.09,1.71-4.27,2.56-6.36l2.6,6.36h3.88l2.91-8,.14-.46a8.25,8.25,0,0,0-.1,1.22c0,4.63,4.06,8.38,9.06,8.38a9,9,0,0,0,8.77-6.29,7.9,7.9,0,0,0,.43,1.18,6.68,6.68,0,0,0,.42.79,9.19,9.19,0,0,0,7.92,4.32c5,0,9.06-3.75,9.06-8.38S97.9,0,92.9,0"/></g></g></svg>